HIERARCHY
ROOT Hips
{
	OFFSET 0.00000 0.00000 0.00000
	CHANNELS 6 Xposition Yposition Zposition Zrotation Yrotation Xrotation 
	JOINT LHipJoint
	{
		OFFSET 0 0 0
		CHANNELS 3 Zrotation Yrotation Xrotation
		JOINT LeftUpLeg
		{
			OFFSET 1.62964 -1.40469 0.78906
			CHANNELS 3 Zrotation Yrotation Xrotation
			JOINT LeftLeg
			{
				OFFSET 2.29640 -6.30932 0.00000
				CHANNELS 3 Zrotation Yrotation Xrotation
				JOINT LeftFoot
				{
					OFFSET 2.29451 -6.30412 0.00000
					CHANNELS 3 Zrotation Yrotation Xrotation
					JOINT LeftToeBase
					{
						OFFSET 0.03611 -0.09921 1.56387
						CHANNELS 3 Zrotation Yrotation Xrotation
						End Site
						{
							OFFSET 0.00000 -0.00000 0.80291
						}
					}
				}
			}
		}
	}
	JOINT RHipJoint
	{
		OFFSET 0 0 0
		CHANNELS 3 Zrotation Yrotation Xrotation
		JOINT RightUpLeg
		{
			OFFSET -1.73712 -1.40469 0.78906
			CHANNELS 3 Zrotation Yrotation Xrotation
			JOINT RightLeg
			{
				OFFSET -2.28137 -6.26801 0.00000
				CHANNELS 3 Zrotation Yrotation Xrotation
				JOINT RightFoot
				{
					OFFSET -2.28681 -6.28298 0.00000
					CHANNELS 3 Zrotation Yrotation Xrotation
					JOINT RightToeBase
					{
						OFFSET -0.15927 -0.43759 1.61103
						CHANNELS 3 Zrotation Yrotation Xrotation
						End Site
						{
							OFFSET -0.00000 -0.00000 0.84630
						}
					}
				}
			}
		}
	}
	JOINT LowerBack
	{
		OFFSET 0 0 0
		CHANNELS 3 Zrotation Yrotation Xrotation
		JOINT Spine
		{
			OFFSET -0.04227 2.04338 -0.00225
			CHANNELS 3 Zrotation Yrotation Xrotation
			JOINT Spine1
			{
				OFFSET -0.02148 2.04482 -0.04273
				CHANNELS 3 Zrotation Yrotation Xrotation
				JOINT Neck
				{
					OFFSET 0 0 0
					CHANNELS 3 Zrotation Yrotation Xrotation
					JOINT Neck1
					{
						OFFSET 0.09180 1.44629 0.19359
						CHANNELS 3 Zrotation Yrotation Xrotation
						JOINT Head
						{
							OFFSET 0.00887 1.40645 0.14750
							CHANNELS 3 Zrotation Yrotation Xrotation
							End Site
							{
								OFFSET -0.00669 1.50671 0.03707
							}
						}
					}
				}
				JOINT LeftShoulder
				{
					OFFSET 0 0 0
					CHANNELS 3 Zrotation Yrotation Xrotation
					JOINT LeftArm
					{
						OFFSET 2.17674 1.86763 -0.06520
						CHANNELS 3 Zrotation Yrotation Xrotation
						JOINT LeftForeArm
						{
							OFFSET 4.65776 -0.00000 0.00000
							CHANNELS 3 Zrotation Yrotation Xrotation
							JOINT LeftHand
							{
								OFFSET 3.55539 -0.00000 0.00000
								CHANNELS 3 Zrotation Yrotation Xrotation
								JOINT LeftFingerBase
								{
									OFFSET 0 0 0
									CHANNELS 3 Zrotation Yrotation Xrotation
									JOINT LeftHandIndex1
									{
										OFFSET 0.70726 -0.00000 0.00000
										CHANNELS 3 Zrotation Yrotation Xrotation
										End Site
										{
											OFFSET 0.57022 -0.00000 0.00000
										}
									}
								}
								JOINT LThumb
								{
									OFFSET 0 0 0
									CHANNELS 3 Zrotation Yrotation Xrotation
									End Site
									{
										OFFSET 0.57892 -0.00000 0.57892
									}
								}
							}
						}
					}
				}
				JOINT RightShoulder
				{
					OFFSET 0 0 0
					CHANNELS 3 Zrotation Yrotation Xrotation
					JOINT RightArm
					{
						OFFSET -2.80694 1.55459 -0.32496
						CHANNELS 3 Zrotation Yrotation Xrotation
						JOINT RightForeArm
						{
							OFFSET -4.71925 -0.00000 -0.00000
							CHANNELS 3 Zrotation Yrotation Xrotation
							JOINT RightHand
							{
								OFFSET -3.56990 -0.00000 0.00000
								CHANNELS 3 Zrotation Yrotation Xrotation
								JOINT RightFingerBase
								{
									OFFSET 0 0 0
									CHANNELS 3 Zrotation Yrotation Xrotation
									JOINT RightHandIndex1
									{
										OFFSET -0.50776 -0.00000 0.00000
										CHANNELS 3 Zrotation Yrotation Xrotation
										End Site
										{
											OFFSET -0.40937 -0.00000 0.00000
										}
									}
								}
								JOINT RThumb
								{
									OFFSET 0 0 0
									CHANNELS 3 Zrotation Yrotation Xrotation
									End Site
									{
										OFFSET -0.41562 -0.00000 0.41562
									}
								}
							}
						}
					}
				}
			}
		}
	}
}
MOTION
Frames: 16
Frame Time: 0.125
0.00 0.00 0.00 0 0 0 0 0 0 -21 0 0 0 0 0 0 0 0 0 0 0 0 0 0 21 0 0 0 0 0 0 0 0 0 0 0 0 0 0 0 0 0 0 0 0 0 0 -16 0 0 21 0 0 11 0 0 0 -8 0 0 0 0 0 0 0 0 0 0 0 0 0 0 0 0 0 0 0 0 8 0 0 0 0 0 0 0 0 0 0 0 0 0 0 0 0 0
0.00 0.00 0.00 -180.2280 -3.5129 -147.9040 0.0000 0.0000 0.0000 -12.3248 -21.2348 -31.8514 0.6870 5.2991 14.7637 0.3388 1.6595 -11.7272 5.8207 -14.2523 -44.2576 0.0000 0.0000 0.0000 12.5031 22.4087 -27.0855 -0.1769 -2.7096 7.4712 -0.6588 -7.0173 -19.4621 -3.0511 10.7773 -31.5324 -6.2325 -1.7299 -22.3465 -0.6155 -1.0462 -1.3438 2.5176 -0.9587 11.1424 -2.6786 -5.9476 -6.0169 10.1401 -8.1488 -7.8288 3.6295 -4.4384 -0.8853 0.0000 0.0000 0.0000 -68.7129 11.9518 44.7059 17.1631 -27.0723 -4.1613 -0.0000 -0.0000 1.5097 23.7881 -14.1441 -6.1479 -7.1250 0.0000 -0.0000 -2.4977 14.5928 1.7896 0.0000 0.0000 0.0000 84.5827 -16.1081 14.8860 -14.9513 24.0783 -3.2061 0.0000 0.0000 1.5894 -12.6865 -50.1782 9.8092 7.1250 -0.0000 -0.0000 56.2663 -74.9119 -42.5209
0.00 0.00 0.00 -180.6490 -5.4048 -142.8130 0.0000 0.0000 0.0000 -6.9550 -25.1580 -47.7419 2.8173 10.3933 30.2600 0.7575 -0.3701 -16.3275 5.9497 -14.3794 -44.7795 0.0000 0.0000 0.0000 9.8012 22.2565 -41.8247 -1.3223 -7.2827 20.5557 -1.4152 -4.0357 -24.2435 -2.8478 10.4445 -30.4284 -6.4880 -1.9819 -19.2564 -0.4110 -1.5607 -1.7605 2.8040 -1.1423 9.0349 -2.3549 -6.3296 -8.5828 9.5719 -8.8519 -9.0407 3.2882 -4.8713 -0.8402 0.0000 0.0000 0.0000 -66.0443 15.9602 48.1080 20.2432 -30.9343 -5.6559 -0.0000 0.0000 -0.3416 24.5399 -14.2389 -6.4075 -7.1250 0.0000 -0.0000 -1.9924 14.3996 1.4352 0.0000 0.0000 0.0000 84.0154 -19.5585 11.6494 -15.7688 25.2062 -3.5469 0.0000 0.0000 2.2748 -12.2095 -50.2191 9.4413 7.1250 -0.0000 -0.0000 56.7382 -74.7490 -42.7587
0.00 0.00 0.00 -180.0990 -6.1802 -139.1370 0.0000 0.0000 0.0000 -3.0472 -23.5781 -63.3032 6.3213 14.7326 46.2579 1.2543 -3.8513 -20.2491 6.1504 -14.5725 -45.5823 0.0000 0.0000 0.0000 8.1067 22.6260 -58.1298 -4.5908 -12.9076 39.0236 -2.6077 -0.4022 -30.7446 -2.9023 10.5352 -30.7279 -5.8617 -1.5641 -15.8018 -0.3546 -1.2701 -1.5009 2.6503 -0.8992 7.3745 -1.5372 -6.8710 -9.8898 9.6169 -9.9906 -12.6248 3.2116 -5.7788 -1.7733 -0.0000 -0.0000 0.0000 -65.0290 17.0330 49.1966 23.1151 -34.2144 -7.2029 -0.0000 0.0000 -2.0023 24.7738 -15.0130 -6.8173 -7.1250 0.0000 -0.0000 -1.8896 13.5304 1.3958 -0.0000 -0.0000 0.0000 84.5415 -21.3730 11.2038 -17.9023 28.0319 -4.5033 0.0000 -0.0000 -0.2497 -13.2410 -51.3196 10.4085 7.1250 -0.0000 -0.0000 59.8958 -75.6212 -46.3910
0.00 0.00 0.00 -180.4280 -6.5006 -137.3890 0.0000 0.0000 0.0000 -1.8150 -22.6927 -75.5970 10.5291 17.6968 61.2426 1.6211 -4.4217 -23.0512 5.1100 -13.5066 -41.2956 0.0000 0.0000 0.0000 6.4963 22.0490 -71.0065 -9.0285 -16.8260 56.1887 -3.8762 1.4633 -37.0187 -3.2018 11.0148 -32.3299 -6.2875 -1.4869 -11.3522 -0.6207 -1.2852 -0.8716 2.6787 -0.8380 5.5780 -2.7686 -6.6329 -10.8993 10.8723 -9.5629 -12.6018 3.8203 -5.5574 -1.4974 0.0000 0.0000 0.0000 -65.1869 15.9669 48.8968 24.3269 -35.5080 -7.8956 -0.0000 0.0000 -2.1933 25.2544 -15.7696 -7.3055 -7.1250 0.0000 -0.0000 -1.6262 12.6444 1.2313 0.0000 0.0000 0.0000 84.3929 -20.8923 14.1501 -19.1681 29.6270 -5.1137 0.0000 -0.0000 -1.6048 -13.4591 -50.2215 10.4217 7.1250 -0.0000 -0.0000 55.8690 -75.2284 -42.5000
0.00 0.00 0.00 -180.2000 -6.8168 -135.6080 0.0000 0.0000 0.0000 1.7381 -22.5660 -88.7192 15.8532 19.5826 77.7942 2.2809 -4.0166 -27.6177 4.2083 -12.4325 -37.2798 0.0000 0.0000 0.0000 3.8372 23.3135 -84.1407 -14.7159 -19.3170 74.3795 -5.4244 0.8435 -44.1921 -3.3384 11.2237 -33.0379 -5.9647 -0.9150 -7.7127 -1.1195 -0.7555 -0.5292 2.1023 -0.5086 3.8391 -4.1836 -6.4900 -11.2754 13.9068 -9.0725 -12.7279 4.6493 -5.3395 -1.0717 0.0000 0.0000 0.0000 -66.8156 10.8469 46.3928 23.0483 -34.1416 -7.1654 -0.0000 0.0000 -0.3538 25.2488 -17.5584 -8.0973 -7.1250 0.0000 -0.0000 -1.7852 10.7051 1.4232 0.0000 0.0000 0.0000 84.0000 -18.7452 18.9386 -21.1690 32.0251 -6.1393 0.0000 -0.0000 -0.8340 -18.2132 -47.5828 13.6535 7.1250 -0.0000 -0.0000 43.1543 -75.6275 -32.3261
0.00 0.00 0.00 -181.2540 -31.8703 -142.5860 0.0000 0.0000 0.0000 6.9245 -30.6533 -67.9789 9.3506 17.0281 57.2949 0.0049 -8.3274 -5.9345 0.5994 -4.9562 -13.7838 0.0000 0.0000 0.0000 24.4035 10.7542 -62.0599 -9.1858 -16.9258 56.7305 -1.9802 -10.2434 -31.9035 -3.0932 10.8443 -31.7567 -7.5405 7.7972 -9.4976 -4.8939 11.1298 -1.9252 0.2990 5.4104 2.8018 -15.4516 -8.5147 3.0954 18.2469 -10.9904 -22.9385 9.0341 -6.1593 -5.2829 0.0000 0.0000 0.0000 -68.9657 16.8784 47.0341 60.6851 -56.4897 -34.9117 -0.0000 0.0000 -2.8045 29.7594 -16.2372 -9.0832 -7.1250 0.0000 -0.0000 1.3210 11.4383 -1.0331 0.0000 0.0000 0.0000 60.3273 9.9861 56.2451 -71.3499 58.6441 -43.9221 0.0000 -0.0000 -3.9809 -13.4526 -47.6992 10.0330 7.1250 -0.0000 -0.0000 47.9237 -73.8858 -34.6259
0.00 0.00 0.00 -181.4320 -39.3256 -142.4850 0.0000 0.0000 0.0000 5.2233 -29.8653 -58.6607 4.8392 13.2004 40.1232 0.0856 -3.6561 8.0766 1.0550 -6.5309 -18.3330 0.0000 0.0000 0.0000 27.1565 6.6517 -53.5067 -4.8097 -13.1663 39.9941 0.0576 -13.1614 -17.9913 -3.8073 11.8995 -35.3772 -8.4072 8.4648 -13.9401 -4.7630 12.5002 -2.5632 1.6541 5.9838 4.2642 -18.8667 -6.7558 7.8375 21.3444 -8.8712 -24.5950 11.2359 -5.1633 -6.6044 0.0000 0.0000 0.0000 -66.8987 17.3014 48.7722 63.5943 -57.1940 -37.3474 -0.0000 0.0000 -2.1588 29.9498 -16.1947 -9.1293 -7.1250 0.0000 -0.0000 1.4514 11.4539 -1.1347 0.0000 0.0000 0.0000 59.9213 6.2864 57.2670 -67.5962 58.0158 -40.7270 0.0000 -0.0000 -5.3703 -10.4941 -47.0301 7.7186 7.1250 -0.0000 -0.0000 48.7423 -72.4063 -33.8846
0.00 0.00 0.00 -182.5090 -45.9491 -141.9550 0.0000 0.0000 0.0000 2.5891 -28.7856 -51.0060 1.9603 8.7829 25.1186 1.6201 3.7808 23.1444 0.7297 -5.4577 -15.2187 0.0000 0.0000 0.0000 26.0671 6.8134 -44.4326 -2.0069 -8.8804 25.4220 1.2398 -19.2503 -7.0227 -4.2036 12.4266 -37.2582 -9.1911 8.1929 -17.0713 -4.2775 12.5401 -2.8046 3.0317 5.8962 5.4111 -21.0518 -5.3920 9.4531 23.6218 -7.0997 -24.2183 12.6277 -4.3334 -6.9306 0.0000 -0.0000 0.0000 -66.5378 15.9093 50.2163 62.4982 -56.9397 -36.4274 -0.0000 0.0000 -1.6916 29.9230 -16.4910 -9.2791 -7.1250 0.0000 -0.0000 1.3992 11.1252 -1.1032 0.0000 -0.0000 0.0000 61.8574 3.7656 57.4439 -59.4021 56.1485 -33.8441 0.0000 -0.0000 -3.1017 -8.9735 -46.8550 6.5724 7.1250 -0.0000 -0.0000 49.6516 -71.7614 -33.9708
0.00 0.00 0.00 -185.0020 -54.1661 -140.4360 0.0000 0.0000 0.0000 -4.2414 -24.1395 -44.1045 0.3105 3.5825 9.9048 4.2049 17.1775 37.4966 1.1240 -6.7342 -18.9304 0.0000 0.0000 0.0000 21.7283 12.1874 -31.6682 -0.2243 -3.0483 8.4133 3.7422 -34.4065 0.6648 -4.1991 12.4208 -37.2372 -9.4645 7.2109 -20.6455 -3.5890 11.6906 -2.5070 4.3170 5.2941 7.5364 -23.0568 -4.5496 9.8845 25.3000 -6.0853 -22.5474 13.5666 -3.8072 -6.5632 -0.0000 -0.0000 0.0000 -67.2122 12.7698 51.6755 59.3251 -56.1274 -33.7802 -0.0000 0.0000 -1.6335 29.3051 -16.3115 -8.9586 -7.1250 0.0000 -0.0000 1.0127 11.4311 -0.7921 -0.0000 -0.0000 0.0000 65.1089 2.2305 56.6873 -49.8290 52.9263 -26.0376 0.0000 -0.0000 -1.3422 -6.9808 -48.1022 5.2075 7.1250 -0.0000 -0.0000 54.5234 -71.7639 -37.8365
0.00 0.00 0.00 -187.0660 -59.0062 -138.4960 0.0000 0.0000 0.0000 -12.0873 -16.1362 -44.3356 0.1353 2.3708 6.5315 6.7311 15.5136 47.8510 1.2602 -7.1162 -20.0600 0.0000 0.0000 0.0000 18.2117 18.6848 -25.5418 -0.0134 -0.7464 2.0512 7.4386 -43.7941 -5.4699 -1.1872 6.9145 -19.4624 -9.3063 6.5254 -22.7161 -3.1197 10.9481 -2.4323 4.8724 4.8284 8.7480 -24.0817 -4.6297 9.3960 25.1700 -6.3844 -20.6366 13.4637 -3.8226 -5.7710 -0.0000 -0.0000 0.0000 -67.9911 10.8414 52.8750 57.3447 -55.5598 -32.1413 -0.0000 0.0000 -1.3390 29.1718 -16.1484 -8.8253 -7.1250 0.0000 -0.0000 0.9429 11.6356 -0.7335 -0.0000 -0.0000 0.0000 66.4502 1.1118 55.7668 -46.2136 51.3494 -23.1827 0.0000 0.0000 0.2880 -4.8805 -48.2181 3.6432 7.1250 -0.0000 -0.0000 56.5091 -71.0879 -38.7252
0.00 0.00 0.00 -205.6890 -73.8445 -117.0670 0.0000 0.0000 0.0000 -16.8806 -19.1654 -45.8953 0.1907 2.8124 7.7570 3.9617 18.7793 36.5891 1.7583 -8.3433 -23.7617 0.0000 0.0000 0.0000 17.4288 11.5518 -28.0619 -0.0004 -0.1261 0.3465 4.4980 -39.1273 4.9863 -1.5273 7.8030 -22.1173 -7.7042 4.0898 -29.0873 -3.3693 7.5942 -4.5392 3.3023 3.1090 10.3284 -26.3232 -3.4310 7.8336 26.4226 -5.0270 -14.3126 13.8555 -3.0101 -3.8796 -0.0000 -0.0000 0.0000 -68.9212 7.5194 56.7968 53.0349 -54.1485 -28.6164 -0.0000 -0.0000 0.4345 28.4530 -17.8025 -9.4071 -7.1250 0.0000 -0.0000 0.2852 9.9162 -0.2318 -0.0000 -0.0000 0.0000 72.7789 -4.7244 51.9599 -40.2675 48.2276 -18.6385 0.0000 0.0000 9.0143 -7.4560 -50.3529 5.7542 7.1250 -0.0000 -0.0000 60.4492 -73.0373 -44.1316
0.00 0.00 0.00 -340.8100 -79.7052 13.3839 0.0000 0.0000 0.0000 -8.2410 -22.5337 -39.6494 1.0292 6.4530 18.1046 3.7314 18.5978 35.5134 5.3790 -13.7983 -42.4356 0.0000 0.0000 0.0000 28.7893 4.9069 -31.6119 -1.4410 -7.5891 21.4728 -2.7582 -18.0542 30.7044 -3.0455 10.7683 -31.5025 -3.0787 4.4211 -26.5463 -0.6116 6.3311 -4.9054 3.1514 2.7864 8.9203 -29.5399 -2.9308 4.8526 26.6319 -4.3246 -9.7979 14.2144 -2.3686 -2.2005 -0.0000 0.0000 0.0000 -80.3589 -3.4986 59.1125 38.7709 -47.3246 -17.5301 -0.0000 -0.0000 5.0382 28.1892 -20.8308 -10.7906 -7.1250 0.0000 -0.0000 -0.2509 6.6310 0.2203 -0.0000 0.0000 0.0000 83.5215 -8.8552 38.5153 -34.6345 44.5494 -14.5564 0.0000 0.0000 4.6426 -14.1717 -46.1318 10.3174 7.1250 -0.0000 -0.0000 42.9708 -73.1698 -30.1083
0.00 0.00 0.00 -188.1450 65.3698 193.6420 0.0000 0.0000 0.0000 -4.7780 -31.2945 -53.1890 11.2064 18.0346 63.4499 1.8140 -12.2152 -24.3785 2.9943 -10.6859 -31.2277 0.0000 0.0000 0.0000 12.5211 21.5865 -49.4766 -11.0733 -17.9708 63.0195 -4.9849 -10.7334 -46.5435 -2.3760 9.6088 -27.7190 -5.0906 0.6420 -13.4595 -3.2760 2.0189 -0.4819 -0.2073 0.9336 7.0070 -12.0394 -11.5994 5.6276 27.1706 -10.9617 -26.1575 11.8979 -6.2275 -6.0486 -0.0000 0.0000 0.0000 -81.8622 -4.3534 28.0750 11.4470 -18.9701 -1.9187 -0.0000 0.0000 -6.4696 31.6649 -16.4749 -9.9213 -7.1250 0.0000 -0.0000 2.5441 10.8342 -2.0226 -0.0000 0.0000 0.0000 89.2325 9.9983 26.4096 -13.3123 21.7430 -2.5678 0.0000 0.0000 7.5912 -9.3375 -53.1234 7.4932 7.1250 -0.0000 -0.0000 68.4287 -74.7571 -53.1132
0.00 0.00 0.00 -187.7580 69.4260 196.4270 0.0000 0.0000 0.0000 -4.4728 -31.2119 -47.3516 6.5397 14.9317 47.1110 2.0812 -3.5016 -26.4228 6.9884 -15.3221 -48.8304 0.0000 0.0000 0.0000 11.9558 22.6428 -45.1808 -6.2639 -14.6793 46.0317 -3.8041 -9.7815 -41.0631 -4.6943 13.0311 -39.4849 -5.3589 0.1603 -15.9450 -3.1068 1.5914 -2.1324 0.0734 0.7761 6.6207 -10.4478 -11.4004 1.9017 23.7777 -11.8638 -20.7780 9.6330 -6.3670 -4.0359 -0.0000 -0.0000 0.0000 -84.3087 -10.4092 32.4303 10.6377 -17.7308 -1.6639 -0.0000 0.0000 -1.0335 31.2377 -17.9117 -10.5663 -7.1250 0.0000 -0.0000 2.0775 9.2831 -1.7164 -0.0000 -0.0000 0.0000 87.0513 19.3775 26.2328 -13.5240 22.0501 -2.6468 0.0000 0.0000 6.4563 -8.9123 -54.4236 7.2685 7.1250 -0.0000 -0.0000 73.2972 -74.9242 -57.8307
0.00 0.00 0.00 -196.3120 82.2690 187.4080 0.0000 0.0000 0.0000 -10.8406 -26.8679 -30.8039 1.5540 7.8678 22.3134 2.1543 -0.5126 -27.6454 3.1416 -10.9208 -32.0133 0.0000 0.0000 0.0000 10.3834 25.6488 -32.3999 -1.5034 -7.7445 21.9408 -3.2605 -6.8783 -36.9914 -5.8284 14.2600 -44.2892 -4.5949 -0.8543 -25.1404 -2.0503 0.7991 -5.4752 0.6573 0.5379 7.8868 -10.3950 -9.9966 6.0098 17.7128 -12.3704 -13.4175 7.5363 -6.5693 -3.0594 -0.0000 0.0000 0.0000 -64.7342 -14.6382 36.7955 10.0573 -16.8291 -1.4915 -0.0000 -0.0000 4.1386 24.8229 -16.2259 -7.3646 -7.1250 0.0000 -0.0000 -1.9515 12.2096 1.4955 -0.0000 0.0000 0.0000 81.2442 9.8792 19.9024 -11.3533 18.8277 -1.8884 0.0000 0.0000 8.5780 -6.0860 -57.2805 5.1260 7.1250 -0.0000 -0.0000 84.3028 -74.2610 -67.8031
